PathFileType	4	(x/y/z)	A01_FAST_T0021.trc
DataRate	CameraRate	NumFrames	NumMarkers	Units	OrigDataRate	OrigDataStartFrame	OrigNumFrames
240	240	5	48	mm	240	108	287
Frame#	Time	TOP_HEAD			R_AC			L_AC			R_ASIS			L_ASIS			R_PSIS			L_PSIS			SACRAL			L_IC			R_IC			L_GT			R_GT			R_LAT_KNEE			R_MED_KNEE			L_MED_KNEE			L_LAT_KNEE			R_TOE			L_TOE			R_1ST_MET			L_1ST_MET			L_5TH_MET			R_5TH_MET			R_LAT_ANK			R_MED_ANK			L_MED_ANK			L_LAT_ANK			L_HEEL_SUP			R_HEEL_SUP			L_HEEL_LAT			R_HEEL_LAT			L_HEEL_MED			R_HEEL_MED			R_LL_PROX_POST			R_LL_PROX_ANT			R_LL_DIST_ANT			R_LL_DIST_POST			R_THIGH_PROX_POST			R_THIGH_PROX_ANT			R_THIGH_DIST_ANT			R_THIGH_DIST_POST			L_PROS_PROX_ANT			L_PROS_PROX_POST			L_PROS_DIST_POST			L_PROS_DIST_ANT			L_THIGH_PROX_ANT			L_THIGH_PROX_POST			L_THIGH_DIST_POST			L_THIGH_DIST_ANT			
		X1	Y1	Z1	X2	Y2	Z2	X3	Y3	Z3	X4	Y4	Z4	X5	Y5	Z5	X6	Y6	Z6	X7	Y7	Z7	X8	Y8	Z8	X9	Y9	Z9	X10	Y10	Z10	X11	Y11	Z11	X12	Y12	Z12	X13	Y13	Z13	X14	Y14	Z14	X15	Y15	Z15	X16	Y16	Z16	X17	Y17	Z17	X18	Y18	Z18	X19	Y19	Z19	X20	Y20	Z20	X21	Y21	Z21	X22	Y22	Z22	X23	Y23	Z23	X24	Y24	Z24	X25	Y25	Z25	X26	Y26	Z26	X27	Y27	Z27	X28	Y28	Z28	X29	Y29	Z29	X30	Y30	Z30	X31	Y31	Z31	X32	Y32	Z32	X33	Y33	Z33	X34	Y34	Z34	X35	Y35	Z35	X36	Y36	Z36	X37	Y37	Z37	X38	Y38	Z38	X39	Y39	Z39	X40	Y40	Z40	X41	Y41	Z41	X42	Y42	Z42	X43	Y43	Z43	X44	Y44	Z44	X45	Y45	Z45	X46	Y46	Z46	X47	Y47	Z47	X48	Y48	Z48	

108	0.44739	-52.314	1817.1	311.81	-221.24	1586.9	512.3	-220.4	1543.7	56.138	-230.09	1097.8	509.81	-225.5	1031.5	160.72	-442.62	1093.7	387.26	-433.97	1105.9	254.76	-455.57	1070.2	319.2	-242.59	1152.6	121.53	-268.09	1212.8	514.87	-298.41	957.71	123.5	-279.11	987.31	555.91	-141.06	598.56	506.04	-101.53	598.29	378.37	-329.44	558.71	356.17	-349.26	567.16	199.09	16.664	94.887	440.37	-264.88	78.606	261.7	-62.914	74.092	388.48	-346.84	55.955	316.92	-376.48	47.667	190.19	-99.182	70.043	517.5	-214.63	137.53	483.4	-199.49	144.04	381.9	-459.75	138.98	301.16	-491.91	135.14	233.26	-586.34	90.695	273.49	-308.22	101.15	418.83	-578.01	61.265	241.91	-303.78	78.968	454.97	-568.36	60.099	305.96	-296.68	73.872	395.27	-252.05	435.72	500.84	-186.5	419.51	528.1	-190.79	344.98	514.03	-243.8	353	496.59	-260.83	837.61	539.58	-203.44	881.57	541.92	-166.72	798.09	536.41	-222.01	756.85	531.05	-320.79	477.03	212.81	-374.77	488.19	201.78	-393.66	428.7	211.06	-340.07	424.91	220.28	-254.83	807.65	165.9	-323.17	822.75	149.63	-323.49	747.41	164.94	-260.55	734.68	180.11
109	0.45157	-45.444	1816.2	312.75	-214.51	1586.1	512.52	-213.51	1543.3	56.364	-223.16	1097.1	509.81	-219.68	1030.7	160.74	-436.09	1093.2	387.82	-427.74	1105.5	255.33	-449.26	1069.8	319.79	-236.53	1151.9	121.68	-261.48	1211.9	515.03	-292.99	957.18	123.6	-272.17	986.52	556.14	-133.75	597.89	505.05	-94.56	598.08	377.39	-326.59	558.32	356.31	-346.35	566.9	199.23	36.606	98.12	440.46	-264.7	78.43	261.69	-42.223	75.28	388.34	-346.76	55.898	316.91	-376.4	47.719	190.21	-78.814	70.441	517.24	-195.8	134.86	482.66	-180.52	141.75	381.22	-459.23	139.33	301.26	-491.37	135.67	233.3	-586.08	91.273	273.5	-288.15	96.043	417.75	-577.86	61.821	241.92	-283.32	74.043	454.01	-568.23	60.66	305.99	-275.93	69.083	394.41	-241.1	432.21	499.68	-175.26	417.69	527.16	-177.61	343.08	513.14	-230.73	349.73	495.49	-253.78	836.84	539.37	-196.42	880.83	541.7	-159.65	797.39	535.78	-214.95	756.13	530.45	-318.37	476.61	212.92	-372.28	488.09	201.9	-391.51	428.7	211.17	-337.94	424.61	220.38	-250.28	806.95	166.02	-318.54	822.44	149.78	-319.28	747.1	165.08	-256.39	734.01	180.21
110	0.45575	-38.562	1815.3	313.69	-207.76	1585.2	512.76	-206.59	1542.9	56.608	-216.2	1096.2	509.82	-213.84	1029.8	160.76	-429.53	1092.6	388.4	-421.49	1105.1	255.93	-442.93	1069.4	320.39	-230.47	1151.3	121.83	-254.81	1211	515.2	-287.56	956.62	123.7	-265.23	985.67	556.38	-126.58	597.11	504.08	-87.699	597.75	376.41	-323.7	557.91	356.44	-343.4	566.61	199.36	56.354	101.59	440.53	-264.53	78.251	261.69	-21.666	76.744	388.18	-346.68	55.847	316.91	-376.31	47.773	190.22	-58.575	71.076	516.95	-177.02	132.4	481.87	-161.6	139.68	380.51	-458.7	139.67	301.35	-490.82	136.21	233.33	-585.82	91.866	273.51	-268.06	91.192	416.62	-577.71	62.39	241.94	-262.84	69.374	452.97	-568.1	61.234	306.01	-255.14	64.571	393.49	-230.18	428.67	498.54	-164.09	415.84	526.23	-164.49	341.22	512.25	-217.7	346.49	494.4	-246.82	835.99	539.17	-189.45	879.98	541.52	-152.69	796.57	535.17	-208.01	755.31	529.86	-315.92	476.18	213.02	-369.77	487.96	202	-389.33	428.69	211.27	-335.78	424.28	220.48	-245.72	806.22	166.12	-313.89	822.1	149.95	-315.05	746.76	165.23	-252.22	733.3	180.3
111	0.45994	-31.669	1814.3	314.64	-200.99	1584.3	512.99	-199.66	1542.4	56.87	-209.2	1095.3	509.84	-207.98	1029	160.8	-422.93	1092	389.01	-415.21	1104.6	256.54	-436.56	1068.9	321.02	-224.41	1150.6	121.99	-248.08	1210.1	515.38	-282.12	956.01	123.81	-258.28	984.76	556.62	-119.54	596.21	503.13	-80.944	597.3	375.44	-320.78	557.47	356.57	-340.4	566.31	199.49	75.893	105.31	440.58	-264.35	78.069	261.69	-1.2619	78.487	387.97	-346.6	55.8	316.91	-376.22	47.829	190.24	-38.474	71.947	516.62	-158.3	130.14	481.05	-142.73	137.85	379.76	-458.16	140.02	301.43	-490.27	136.74	233.37	-585.55	92.473	273.52	-247.95	86.602	415.44	-577.55	62.972	241.95	-242.34	64.967	451.89	-567.96	61.82	306.03	-234.34	60.344	392.52	-219.29	425.12	497.43	-152.99	413.99	525.31	-151.43	339.4	511.34	-204.71	343.3	493.31	-239.94	835.06	538.97	-182.54	879.02	541.36	-145.82	795.62	534.59	-201.18	754.4	529.3	-313.44	475.72	213.12	-367.22	487.82	202.11	-387.12	428.66	211.37	-333.59	423.93	220.57	-241.14	805.45	166.22	-309.22	821.72	150.12	-310.79	746.38	165.39	-248.04	732.57	180.39
112	0.46412	-24.766	1813.3	315.59	-194.2	1583.3	513.24	-192.71	1542	57.154	-202.16	1094.3	509.87	-202.1	1028	160.84	-416.3	1091.4	389.62	-408.9	1104.2	257.18	-430.17	1068.4	321.66	-218.36	1149.8	122.13	-241.3	1209	515.57	-276.67	955.36	123.94	-251.32	983.78	556.87	-112.63	595.21	502.21	-74.294	596.74	374.48	-317.81	557	356.68	-337.36	565.98	199.61	95.207	109.28	440.6	-264.17	77.886	261.69	18.971	80.514	387.73	-346.52	55.76	316.91	-376.13	47.887	190.25	-18.521	73.056	516.25	-139.64	128.11	480.21	-123.94	136.25	378.99	-457.61	140.37	301.5	-489.71	137.29	233.4	-585.28	93.096	273.53	-227.85	82.278	414.23	-577.39	63.567	241.96	-221.84	60.824	450.76	-567.81	62.419	306.04	-213.53	56.403	391.5	-208.44	421.56	496.33	-141.97	412.12	524.39	-138.46	337.62	510.42	-191.77	340.15	492.22	-233.13	834.05	538.79	-175.69	877.95	541.22	-139.05	794.55	534.05	-194.46	753.38	528.75	-310.94	475.24	213.21	-364.64	487.65	202.21	-384.89	428.61	211.46	-331.38	423.57	220.66	-236.54	804.65	166.31	-304.53	821.3	150.29	-306.5	745.96	165.55	-243.83	731.8	180.46
